<svg xmlns="http://www.w3.org/2000/svg" version="1.1" viewBox="0.00 0.00 323.00 144.00">
<path stroke="#e6f0fb" stroke-width="2.00" fill="none" stroke-linecap="butt" vector-effect="non-scaling-stroke" d="   M 279.86 54.11   Q 274.81 50.93 270.11 49.67   C 256.41 45.99 240.72 49.59 233.75 62.90   C 233.18 63.98 232.85 65.16 232.36 66.25   Q 231.95 67.15 231.74 66.19   C 226.63 42.68 199.39 37.25 180.32 47.33   Q 178.74 48.16 180.53 48.18   C 193.05 48.32 203.35 56.84 206.80 68.69   Q 207.62 71.50 207.43 74.13   Q 207.35 75.21 206.93 74.22   C 200.34 58.74 179.52 56.86 171.18 72.04   Q 170.42 73.43 170.30 71.85   C 170.09 69.21 169.10 66.03 166.40 65.07   Q 161.84 63.45 157.81 65.94   A 0.34 0.34 0.0 0 1 157.30 65.59   Q 159.15 55.97 151.85 48.48   C 143.07 39.48 129.10 41.73 120.43 49.49   Q 108.34 60.31 109.51 78.30   Q 109.59 79.54 110.83 79.48   C 127.19 78.71 136.98 88.86 140.11 104.02   Q 140.41 105.46 139.72 104.16   C 135.82 96.82 130.52 91.08 122.69 88.58   Q 105.52 83.09 89.35 91.17   A 0.42 0.42 0.0 0 1 88.75 90.77   Q 89.33 81.55 82.25 74.60   C 73.36 65.86 58.98 67.21 51.41 76.53   A 0.46 0.46 0.0 0 0 51.77 77.28   C 62.07 77.35 70.86 82.16 74.22 92.16   Q 74.70 93.60 74.77 95.05   A 0.55 0.55 0.0 0 1 73.85 95.48   C 69.86 91.93 65.26 89.96 59.96 89.89   C 49.64 89.75 39.98 93.80 30.38 97.56   Q 27.86 98.54 23.02 100.10   Q 19.37 101.28 15.74 102.88"/>
<path fill="#b6daff" d="   M 279.86 54.11   Q 274.81 50.93 270.11 49.67   C 256.41 45.99 240.72 49.59 233.75 62.90   C 233.18 63.98 232.85 65.16 232.36 66.25   Q 231.95 67.15 231.74 66.19   C 226.63 42.68 199.39 37.25 180.32 47.33   Q 178.74 48.16 180.53 48.18   C 193.05 48.32 203.35 56.84 206.80 68.69   Q 207.62 71.50 207.43 74.13   Q 207.35 75.21 206.93 74.22   C 200.34 58.74 179.52 56.86 171.18 72.04   Q 170.42 73.43 170.30 71.85   C 170.09 69.21 169.10 66.03 166.40 65.07   Q 161.84 63.45 157.81 65.94   A 0.34 0.34 0.0 0 1 157.30 65.59   Q 159.15 55.97 151.85 48.48   C 143.07 39.48 129.10 41.73 120.43 49.49   Q 108.34 60.31 109.51 78.30   Q 109.59 79.54 110.83 79.48   C 127.19 78.71 136.98 88.86 140.11 104.02   Q 140.41 105.46 139.72 104.16   C 135.82 96.82 130.52 91.08 122.69 88.58   Q 105.52 83.09 89.35 91.17   A 0.42 0.42 0.0 0 1 88.75 90.77   Q 89.33 81.55 82.25 74.60   C 73.36 65.86 58.98 67.21 51.41 76.53   A 0.46 0.46 0.0 0 0 51.77 77.28   C 62.07 77.35 70.86 82.16 74.22 92.16   Q 74.70 93.60 74.77 95.05   A 0.55 0.55 0.0 0 1 73.85 95.48   C 69.86 91.93 65.26 89.96 59.96 89.89   C 49.64 89.75 39.98 93.80 30.38 97.56   Q 27.86 98.54 23.02 100.10   Q 19.37 101.28 15.74 102.88   Q 8.97 100.09 8.09 93.50   Q 7.33 87.82 9.16 83.97   C 10.58 81.00 14.12 77.96 17.46 76.79   C 23.36 74.74 26.98 74.32 32.63 76.90   A 1.01 1.01 0.0 0 0 34.05 76.07   Q 34.31 72.83 35.70 69.98   Q 43.27 54.44 57.92 47.74   Q 65.80 44.14 75.21 43.19   Q 86.67 42.04 96.83 48.49   A 1.38 1.37 30.5 0 0 98.78 47.99   C 108.76 29.45 125.74 12.19 146.39 6.93   Q 150.68 5.83 155.20 5.08   C 174.50 1.87 193.76 8.02 208.39 20.66   C 210.92 22.84 213.67 24.99 215.77 27.55   Q 217.89 30.13 220.31 32.22   A 1.90 1.88 55.2 0 0 222.21 32.57   Q 232.04 28.96 241.41 34.79   C 244.21 36.52 246.10 39.88 248.35 42.36   A 2.26 2.24 -20.6 0 0 250.00 43.10   C 255.18 43.13 261.06 42.46 266.05 43.98   Q 274.26 46.48 279.86 54.11   Z"/>
<path fill="#77bbff" d="   M 279.86 54.11   Q 283.69 58.96 285.24 65.48   C 286.20 69.51 285.85 73.61 285.86 77.67   A 1.44 1.44 0.0 0 0 287.75 79.03   Q 292.56 77.45 297.99 79.29   Q 302.35 80.76 304.80 85.03   Q 309.70 93.57 304.39 101.92   C 302.22 105.32 298.27 108.17 294.80 110.34   Q 286.24 115.69 274.93 118.43   Q 270.59 119.48 265.75 120.45   C 260.56 121.49 255.41 121.67 250.19 122.22   C 245.18 122.75 240.34 121.99 235.40 121.53   Q 221.44 120.25 209.06 113.82   Q 208.45 113.50 208.13 114.11   C 205.57 119.08 201.36 123.14 196.65 126.22   Q 185.00 133.81 169.99 137.00   Q 167.11 137.61 164.02 138.08   Q 160.92 138.55 158.04 138.53   C 153.79 138.51 149.52 138.75 145.35 138.15   Q 136.47 136.86 128.52 134.02   C 123.82 132.33 119.44 129.96 115.08 127.61   Q 107.64 123.62 100.95 117.63   A 1.84 1.83 53.9 0 0 98.97 117.32   Q 91.51 120.66 84.01 124.16   Q 81.23 125.46 73.74 127.14   Q 67.79 128.48 63.25 127.91   Q 52.45 126.56 45.99 120.68   Q 39.72 114.98 35.93 106.75   Q 35.68 106.23 35.11 106.29   Q 29.57 106.91 25.75 106.51   Q 21.76 106.09 15.74 102.88   Q 19.37 101.28 23.02 100.10   Q 27.86 98.54 30.38 97.56   C 39.98 93.80 49.64 89.75 59.96 89.89   C 65.26 89.96 69.86 91.93 73.85 95.48   A 0.55 0.55 0.0 0 0 74.77 95.05   Q 74.70 93.60 74.22 92.16   C 70.86 82.16 62.07 77.35 51.77 77.28   A 0.46 0.46 0.0 0 1 51.41 76.53   C 58.98 67.21 73.36 65.86 82.25 74.60   Q 89.33 81.55 88.75 90.77   A 0.42 0.42 0.0 0 0 89.35 91.17   Q 105.52 83.09 122.69 88.58   C 130.52 91.08 135.82 96.82 139.72 104.16   Q 140.41 105.46 140.11 104.02   C 136.98 88.86 127.19 78.71 110.83 79.48   Q 109.59 79.54 109.51 78.30   Q 108.34 60.31 120.43 49.49   C 129.10 41.73 143.07 39.48 151.85 48.48   Q 159.15 55.97 157.30 65.59   A 0.34 0.34 0.0 0 0 157.81 65.94   Q 161.84 63.45 166.40 65.07   C 169.10 66.03 170.09 69.21 170.30 71.85   Q 170.42 73.43 171.18 72.04   C 179.52 56.86 200.34 58.74 206.93 74.22   Q 207.35 75.21 207.43 74.13   Q 207.62 71.50 206.80 68.69   C 203.35 56.84 193.05 48.32 180.53 48.18   Q 178.74 48.16 180.32 47.33   C 199.39 37.25 226.63 42.68 231.74 66.19   Q 231.95 67.15 232.36 66.25   C 232.85 65.16 233.18 63.98 233.75 62.90   C 240.72 49.59 256.41 45.99 270.11 49.67   Q 274.81 50.93 279.86 54.11   Z"/>
</svg>