<svg xmlns="http://www.w3.org/2000/svg" version="1.1" viewBox="0.00 0.00 357.00 184.00">
<path stroke="#e6f0fb" stroke-width="2.00" fill="none" stroke-linecap="butt" vector-effect="non-scaling-stroke" d="   M 326.10 73.13   Q 319.99 69.76 315.99 69.08   Q 309.04 67.90 302.89 71.00   A 0.57 0.57 0.0 0 0 302.88 72.02   C 314.11 78.00 318.58 86.00 318.64 98.83   Q 318.65 100.78 317.90 98.98   Q 317.13 97.15 316.27 95.23   Q 310.23 81.71 296.73 77.78   C 285.77 74.58 271.12 79.55 272.16 93.23   C 272.24 94.24 272.70 95.26 272.69 96.26   Q 272.69 97.89 271.57 96.70   C 263.88 88.49 251.84 82.30 240.99 85.65   Q 237.46 86.73 240.96 87.93   Q 251.06 91.38 255.45 101.63   A 0.36 0.36 0.0 0 1 255.08 102.13   Q 254.41 102.07 253.80 101.76   C 237.55 93.60 216.74 91.70 201.72 102.30   Q 200.71 103.01 201.02 101.81   C 204.05 90.13 214.29 85.72 225.33 85.19   A 0.86 0.86 0.0 0 0 226.13 84.20   C 224.28 72.51 217.02 61.05 204.92 58.71   C 185.85 55.03 169.36 68.56 169.20 88.07   Q 169.20 88.64 168.64 88.78   C 166.98 89.19 165.40 88.91 163.84 89.77   Q 157.46 93.28 157.80 99.84   A 0.61 0.61 0.0 0 1 156.78 100.31   Q 153.19 96.97 148.67 94.75   C 141.84 91.41 133.27 92.34 129.93 99.66   Q 129.60 100.38 128.84 100.62   C 127.21 101.13 125.62 101.58 124.13 102.48   Q 116.25 107.28 116.19 116.06   A 0.38 0.37 -70.8 0 1 115.58 116.36   Q 100.80 104.35 82.02 109.43   Q 79.51 110.11 76.92 111.49   Q 75.44 112.28 76.13 110.76   C 84.10 93.23 103.83 85.24 121.73 91.48   A 0.99 0.99 0.0 0 0 123.03 90.39   C 120.16 72.32 98.27 61.49 83.80 75.18   Q 74.94 83.56 75.74 95.72   Q 75.81 96.70 74.84 96.52   Q 70.76 95.75 67.50 97.35   Q 58.68 101.65 58.32 110.56   Q 58.29 111.31 57.84 110.72   C 57.23 109.93 56.88 108.95 56.30 108.15   C 51.49 101.58 43.07 98.76 34.84 99.92   Q 32.38 100.27 34.72 101.12   C 36.52 101.78 38.27 102.84 39.65 104.14   Q 48.24 112.23 47.90 125.26   Q 47.85 127.01 47.05 125.45   C 41.31 114.35 33.37 107.81 20.25 108.23   Q 13.64 108.44 5.86 112.05"/>
<path fill="#a8d0ff" d="   M 326.10 73.13   Q 319.99 69.76 315.99 69.08   Q 309.04 67.90 302.89 71.00   A 0.57 0.57 0.0 0 0 302.88 72.02   C 314.11 78.00 318.58 86.00 318.64 98.83   Q 318.65 100.78 317.90 98.98   Q 317.13 97.15 316.27 95.23   Q 310.23 81.71 296.73 77.78   C 285.77 74.58 271.12 79.55 272.16 93.23   C 272.24 94.24 272.70 95.26 272.69 96.26   Q 272.69 97.89 271.57 96.70   C 263.88 88.49 251.84 82.30 240.99 85.65   Q 237.46 86.73 240.96 87.93   Q 251.06 91.38 255.45 101.63   A 0.36 0.36 0.0 0 1 255.08 102.13   Q 254.41 102.07 253.80 101.76   C 237.55 93.60 216.74 91.70 201.72 102.30   Q 200.71 103.01 201.02 101.81   C 204.05 90.13 214.29 85.72 225.33 85.19   A 0.86 0.86 0.0 0 0 226.13 84.20   C 224.28 72.51 217.02 61.05 204.92 58.71   C 185.85 55.03 169.36 68.56 169.20 88.07   Q 169.20 88.64 168.64 88.78   C 166.98 89.19 165.40 88.91 163.84 89.77   Q 157.46 93.28 157.80 99.84   A 0.61 0.61 0.0 0 1 156.78 100.31   Q 153.19 96.97 148.67 94.75   C 141.84 91.41 133.27 92.34 129.93 99.66   Q 129.60 100.38 128.84 100.62   C 127.21 101.13 125.62 101.58 124.13 102.48   Q 116.25 107.28 116.19 116.06   A 0.38 0.37 -70.8 0 1 115.58 116.36   Q 100.80 104.35 82.02 109.43   Q 79.51 110.11 76.92 111.49   Q 75.44 112.28 76.13 110.76   C 84.10 93.23 103.83 85.24 121.73 91.48   A 0.99 0.99 0.0 0 0 123.03 90.39   C 120.16 72.32 98.27 61.49 83.80 75.18   Q 74.94 83.56 75.74 95.72   Q 75.81 96.70 74.84 96.52   Q 70.76 95.75 67.50 97.35   Q 58.68 101.65 58.32 110.56   Q 58.29 111.31 57.84 110.72   C 57.23 109.93 56.88 108.95 56.30 108.15   C 51.49 101.58 43.07 98.76 34.84 99.92   Q 32.38 100.27 34.72 101.12   C 36.52 101.78 38.27 102.84 39.65 104.14   Q 48.24 112.23 47.90 125.26   Q 47.85 127.01 47.05 125.45   C 41.31 114.35 33.37 107.81 20.25 108.23   Q 13.64 108.44 5.86 112.05   Q 5.17 105.61 7.64 99.93   C 9.32 96.06 11.39 92.43 14.71 89.60   Q 21.52 83.78 30.67 81.05   C 36.33 79.36 42.69 80.15 48.45 80.06   A 1.11 1.10 3.7 0 0 49.52 79.13   Q 52.53 59.46 68.50 47.92   Q 72.67 44.91 77.17 43.40   C 81.99 41.78 87.48 40.11 92.56 40.26   Q 109.78 40.75 121.89 50.45   A 0.51 0.51 0.0 0 0 122.67 50.25   Q 122.91 49.67 122.73 49.09   Q 121.39 44.81 122.32 40.92   Q 123.97 33.99 130.25 29.83   C 133.03 27.99 136.63 28.40 139.84 28.31   C 144.23 28.19 147.99 30.12 150.91 33.34   A 0.75 0.75 0.0 0 0 152.20 32.99   Q 153.11 28.85 155.17 24.61   C 158.49 17.76 166.25 12.10 173.12 9.97   Q 176.14 9.03 179.59 8.30   C 189.92 6.14 200.96 8.30 209.86 13.54   C 214.49 16.26 217.85 20.56 220.55 25.04   C 221.78 27.08 222.12 29.33 222.88 31.55   A 1.12 1.12 0.0 0 0 224.42 32.20   Q 226.64 31.15 228.95 30.09   C 233.57 27.98 239.67 29.25 243.57 31.94   C 246.91 34.24 251.55 37.39 253.04 41.44   Q 254.05 44.21 254.66 41.32   C 255.36 38.04 256.52 33.91 258.83 31.40   C 262.84 27.05 267.83 23.50 273.48 23.71   Q 275.76 23.80 278.00 23.69   C 285.68 23.34 292.49 32.51 295.00 39.00   C 296.18 42.04 295.85 45.33 295.65 48.48   Q 295.55 50.07 297.06 49.55   Q 301.05 48.15 304.51 48.74   C 311.74 49.95 318.03 52.89 322.05 59.22   Q 325.80 65.12 326.10 73.13   Z"/>
<path fill="#83c1fd" d="   M 326.10 73.13   Q 328.11 75.54 330.43 77.83   Q 333.70 81.06 334.79 82.46   Q 345.17 95.88 341.12 112.90   Q 340.21 116.72 337.13 121.09   C 333.74 125.90 328.44 129.19 322.81 130.02   C 316.82 130.90 310.46 130.41 305.15 126.76   Q 304.59 126.37 304.43 127.03   C 303.92 129.04 304.15 130.87 302.94 132.68   C 298.63 139.12 292.19 142.10 284.79 139.46   Q 284.18 139.25 284.39 139.86   Q 284.87 141.23 284.66 142.75   Q 283.13 153.88 277.44 162.26   Q 273.27 168.40 265.85 173.40   Q 257.69 178.90 247.08 178.82   Q 227.40 178.68 215.30 163.45   Q 214.87 162.91 214.26 163.23   C 209.44 165.73 204.72 167.57 199.14 167.41   C 196.25 167.32 193.48 167.55 190.61 167.02   Q 176.32 164.38 167.64 152.09   Q 167.21 151.49 166.72 152.04   Q 157.82 161.84 145.02 163.25   C 130.73 164.82 117.59 159.47 104.54 154.28   Q 95.08 150.51 90.36 145.66   Q 86.50 141.68 85.65 135.74   Q 85.48 134.56 84.46 135.18   C 78.74 138.66 73.60 140.73 66.85 141.59   Q 60.21 142.44 55.90 141.99   C 51.33 141.52 46.60 141.33 42.17 140.19   C 32.54 137.70 20.62 133.65 13.37 127.24   Q 10.47 124.66 7.30 120.40   C 5.47 117.93 5.49 114.96 5.86 112.05   Q 13.64 108.44 20.25 108.23   C 33.37 107.81 41.31 114.35 47.05 125.45   Q 47.85 127.01 47.90 125.26   Q 48.24 112.23 39.65 104.14   C 38.27 102.84 36.52 101.78 34.72 101.12   Q 32.38 100.27 34.84 99.92   C 43.07 98.76 51.49 101.58 56.30 108.15   C 56.88 108.95 57.23 109.93 57.84 110.72   Q 58.29 111.31 58.32 110.56   Q 58.68 101.65 67.50 97.35   Q 70.76 95.75 74.84 96.52   Q 75.81 96.70 75.74 95.72   Q 74.94 83.56 83.80 75.18   C 98.27 61.49 120.16 72.32 123.03 90.39   A 0.99 0.99 0.0 0 1 121.73 91.48   C 103.83 85.24 84.10 93.23 76.13 110.76   Q 75.44 112.28 76.92 111.49   Q 79.51 110.11 82.02 109.43   Q 100.80 104.35 115.58 116.36   A 0.38 0.37 -70.8 0 0 116.19 116.06   Q 116.25 107.28 124.13 102.48   C 125.62 101.58 127.21 101.13 128.84 100.62   Q 129.60 100.38 129.93 99.66   C 133.27 92.34 141.84 91.41 148.67 94.75   Q 153.19 96.97 156.78 100.31   A 0.61 0.61 0.0 0 0 157.80 99.84   Q 157.46 93.28 163.84 89.77   C 165.40 88.91 166.98 89.19 168.64 88.78   Q 169.20 88.64 169.20 88.07   C 169.36 68.56 185.85 55.03 204.92 58.71   C 217.02 61.05 224.28 72.51 226.13 84.20   A 0.86 0.86 0.0 0 1 225.33 85.19   C 214.29 85.72 204.05 90.13 201.02 101.81   Q 200.71 103.01 201.72 102.30   C 216.74 91.70 237.55 93.60 253.80 101.76   Q 254.41 102.07 255.08 102.13   A 0.36 0.36 0.0 0 0 255.45 101.63   Q 251.06 91.38 240.96 87.93   Q 237.46 86.73 240.99 85.65   C 251.84 82.30 263.88 88.49 271.57 96.70   Q 272.69 97.89 272.69 96.26   C 272.70 95.26 272.24 94.24 272.16 93.23   C 271.12 79.55 285.77 74.58 296.73 77.78   Q 310.23 81.71 316.27 95.23   Q 317.13 97.15 317.90 98.98   Q 318.65 100.78 318.64 98.83   C 318.58 86.00 314.11 78.00 302.88 72.02   A 0.57 0.57 0.0 0 1 302.89 71.00   Q 309.04 67.90 315.99 69.08   Q 319.99 69.76 326.10 73.13   Z"/>
</svg>