<svg xmlns="http://www.w3.org/2000/svg" version="1.1" viewBox="0.00 0.00 538.00 199.00">
<path stroke="#e6f0fb" stroke-width="2.00" fill="none" stroke-linecap="butt" vector-effect="non-scaling-stroke" d="   M 527.86 96.18   Q 526.77 96.65 525.65 95.94   Q 524.45 95.18 523.00 95.01   Q 516.70 94.27 509.99 94.60   Q 490.91 95.52 472.99 100.19   C 468.13 101.45 462.74 103.26 458.02 102.21   C 454.63 101.45 451.20 100.54 447.74 100.37   Q 428.71 99.43 415.66 112.99   A 0.90 0.90 0.0 0 1 414.44 113.06   C 408.71 108.30 402.51 105.23 395.19 105.83   C 389.69 106.28 385.35 108.88 382.96 113.62   Q 382.32 114.90 381.56 116.09   Q 381.24 116.59 380.67 116.74   L 374.72 118.37   Q 374.20 118.52 373.67 118.41   C 371.68 118.01 369.88 117.09 367.86 116.67   Q 358.52 114.76 350.13 117.32   Q 348.78 117.73 349.46 116.49   Q 356.28 104.08 369.89 104.26   Q 371.65 104.28 370.05 103.56   Q 362.24 100.05 353.43 100.79   Q 341.38 101.80 335.50 112.57   A 0.71 0.70 -49.6 0 1 334.32 112.67   C 329.36 106.25 321.43 100.13 313.28 98.94   C 303.21 97.48 292.90 101.99 286.96 110.05   A 0.41 0.40 54.5 0 1 286.25 109.93   C 282.53 98.23 271.28 90.53 259.23 89.21   Q 245.31 87.70 234.19 95.67   Q 229.65 98.93 235.06 97.54   C 244.27 95.16 255.84 94.70 259.65 105.58   A 0.40 0.40 0.0 0 1 259.15 106.09   Q 245.06 101.60 235.30 112.69   C 234.26 113.87 233.65 115.81 232.85 117.21   Q 232.38 118.03 231.94 117.20   C 229.47 112.62 223.45 110.37 219.12 113.60   Q 216.07 115.89 216.74 120.35   A 0.76 0.76 0.0 0 1 215.57 121.10   C 203.09 112.94 186.97 113.03 173.56 118.22   C 170.41 119.43 167.66 121.29 165.09 123.39   Q 162.39 125.61 163.94 122.48   C 168.35 113.58 178.62 109.77 188.48 109.86   Q 191.45 109.89 189.13 108.03   C 185.60 105.20 181.41 103.50 177.15 101.92   C 166.54 97.97 152.60 97.72 142.64 103.93   Q 140.80 105.07 141.83 103.17   C 144.24 98.67 144.18 93.07 142.26 88.52   C 137.70 77.70 126.46 74.32 116.18 79.14   C 102.34 85.62 100.89 104.20 110.21 115.03   Q 110.78 115.69 109.90 115.66   Q 100.31 115.39 89.51 118.54   A 0.64 0.64 0.0 0 0 89.25 119.63   Q 94.12 124.13 95.54 130.97   Q 95.95 132.92 94.61 131.44   Q 85.12 121.00 70.58 120.10   Q 67.53 119.91 70.36 118.75   Q 75.24 116.74 81.30 117.18   A 0.75 0.74 81.7 0 0 82.05 116.17   C 78.31 106.28 70.62 98.51 59.74 97.14   Q 53.63 96.37 47.16 96.21"/>
<path fill="#a8d0ff" d="   M 527.86 96.18   Q 526.77 96.65 525.65 95.94   Q 524.45 95.18 523.00 95.01   Q 516.70 94.27 509.99 94.60   Q 490.91 95.52 472.99 100.19   C 468.13 101.45 462.74 103.26 458.02 102.21   C 454.63 101.45 451.20 100.54 447.74 100.37   Q 428.71 99.43 415.66 112.99   A 0.90 0.90 0.0 0 1 414.44 113.06   C 408.71 108.30 402.51 105.23 395.19 105.83   C 389.69 106.28 385.35 108.88 382.96 113.62   Q 382.32 114.90 381.56 116.09   Q 381.24 116.59 380.67 116.74   L 374.72 118.37   Q 374.20 118.52 373.67 118.41   C 371.68 118.01 369.88 117.09 367.86 116.67   Q 358.52 114.76 350.13 117.32   Q 348.78 117.73 349.46 116.49   Q 356.28 104.08 369.89 104.26   Q 371.65 104.28 370.05 103.56   Q 362.24 100.05 353.43 100.79   Q 341.38 101.80 335.50 112.57   A 0.71 0.70 -49.6 0 1 334.32 112.67   C 329.36 106.25 321.43 100.13 313.28 98.94   C 303.21 97.48 292.90 101.99 286.96 110.05   A 0.41 0.40 54.5 0 1 286.25 109.93   C 282.53 98.23 271.28 90.53 259.23 89.21   Q 245.31 87.70 234.19 95.67   Q 229.65 98.93 235.06 97.54   C 244.27 95.16 255.84 94.70 259.65 105.58   A 0.40 0.40 0.0 0 1 259.15 106.09   Q 245.06 101.60 235.30 112.69   C 234.26 113.87 233.65 115.81 232.85 117.21   Q 232.38 118.03 231.94 117.20   C 229.47 112.62 223.45 110.37 219.12 113.60   Q 216.07 115.89 216.74 120.35   A 0.76 0.76 0.0 0 1 215.57 121.10   C 203.09 112.94 186.97 113.03 173.56 118.22   C 170.41 119.43 167.66 121.29 165.09 123.39   Q 162.39 125.61 163.94 122.48   C 168.35 113.58 178.62 109.77 188.48 109.86   Q 191.45 109.89 189.13 108.03   C 185.60 105.20 181.41 103.50 177.15 101.92   C 166.54 97.97 152.60 97.72 142.64 103.93   Q 140.80 105.07 141.83 103.17   C 144.24 98.67 144.18 93.07 142.26 88.52   C 137.70 77.70 126.46 74.32 116.18 79.14   C 102.34 85.62 100.89 104.20 110.21 115.03   Q 110.78 115.69 109.90 115.66   Q 100.31 115.39 89.51 118.54   A 0.64 0.64 0.0 0 0 89.25 119.63   Q 94.12 124.13 95.54 130.97   Q 95.95 132.92 94.61 131.44   Q 85.12 121.00 70.58 120.10   Q 67.53 119.91 70.36 118.75   Q 75.24 116.74 81.30 117.18   A 0.75 0.74 81.7 0 0 82.05 116.17   C 78.31 106.28 70.62 98.51 59.74 97.14   Q 53.63 96.37 47.16 96.21   C 47.30 94.21 46.60 92.48 46.50 91.09   Q 46.27 87.91 46.76 85.08   Q 50.26 65.10 69.26 58.72   Q 73.53 57.29 80.59 55.99   Q 83.97 55.37 87.86 55.91   Q 92.43 56.56 97.37 57.33   A 1.24 1.21 23.4 0 0 98.52 56.89   Q 102.10 52.44 106.26 49.29   C 108.22 47.81 110.38 47.37 112.64 46.52   Q 113.97 46.02 115.41 45.95   Q 122.57 45.58 126.49 46.28   Q 133.63 47.55 138.50 51.82   Q 141.35 54.32 143.80 57.26   Q 145.71 59.55 145.72 56.56   C 145.74 52.83 145.88 49.33 147.19 45.76   Q 154.21 26.69 173.21 19.06   Q 176.18 17.86 179.57 17.46   Q 190.01 16.20 199.46 19.80   Q 206.40 22.45 211.05 26.60   C 216.95 31.86 222.71 38.82 224.49 46.33   Q 225.21 49.36 225.72 52.45   A 0.67 0.67 0.0 0 0 226.59 52.99   C 227.91 52.58 228.97 51.75 230.36 51.53   Q 235.78 50.68 239.71 51.81   Q 248.79 54.42 254.04 63.45   Q 255.10 65.29 255.12 67.55   Q 255.13 68.09 255.66 68.22   A 0.62 0.62 0.0 0 0 256.42 67.72   Q 258.37 55.73 266.42 46.78   Q 278.11 33.78 294.95 31.25   Q 303.10 30.02 311.23 32.51   C 328.62 37.84 340.80 53.86 343.13 71.41   Q 343.64 75.19 342.90 82.13   Q 342.81 82.97 343.54 82.55   Q 355.87 75.42 371.10 80.77   C 376.19 82.56 379.77 86.47 383.39 90.31   C 384.71 91.72 385.13 93.40 385.96 95.08   A 0.87 0.87 0.0 0 0 387.22 95.42   Q 394.56 90.57 404.40 88.16   C 411.43 86.44 418.70 87.22 425.88 87.09   C 429.15 87.03 432.43 88.00 435.64 88.69   Q 444.67 90.64 451.54 95.27   Q 451.94 95.55 452.43 95.46   Q 457.47 94.56 462.60 93.13   C 469.22 91.28 476.01 90.66 482.74 89.30   C 489.01 88.03 495.15 88.65 501.51 88.93   Q 504.07 89.05 506.36 89.66   C 508.59 90.25 510.82 90.19 513.03 90.73   Q 516.01 91.46 518.97 92.25   Q 523.70 93.49 527.86 96.18   Z"/>
<path fill="#83c1fd" d="   M 527.86 96.18   Q 529.03 96.93 529.52 98.17   Q 529.71 98.65 529.44 99.09   Q 528.46 100.73 526.83 101.34   Q 519.66 104.01 512.98 106.06   Q 511.04 106.65 508.55 107.39   Q 501.74 109.41 494.85 110.56   C 489.79 111.40 484.70 112.35 479.64 112.81   C 475.38 113.20 471.06 113.71 466.79 113.92   Q 462.22 114.15 457.12 114.56   Q 454.62 114.76 452.60 116.08   Q 445.47 120.71 439.99 123.15   Q 432.62 126.43 423.65 127.83   Q 420.22 128.36 416.83 128.27   C 413.77 128.18 410.73 128.44 407.69 128.04   Q 399.91 127.02 393.40 124.55   A 2.15 2.15 0.0 0 0 391.29 124.88   C 387.40 127.99 384.39 130.62 379.07 130.80   C 377.77 130.85 376.73 130.35 375.48 130.22   Q 374.78 130.15 374.92 130.83   Q 377.14 142.09 368.20 149.02   C 365.84 150.85 363.03 151.64 360.36 152.95   C 357.60 154.30 353.05 153.77 350.05 153.70   C 348.24 153.66 346.60 152.45 344.84 151.95   A 2.43 2.42 24.3 0 0 342.14 152.96   Q 334.34 165.00 321.23 168.94   Q 311.20 171.95 300.90 171.22   C 289.77 170.44 280.73 165.72 272.50 158.46   Q 272.09 158.09 271.82 158.59   Q 266.85 168.05 256.03 169.97   C 248.18 171.37 241.04 167.70 235.55 162.14   A 0.81 0.81 0.0 0 0 234.32 162.23   Q 223.30 177.39 205.13 183.51   Q 201.77 184.64 198.59 185.00   C 195.07 185.41 191.60 186.44 187.96 186.46   Q 181.41 186.51 174.22 185.09   C 165.88 183.45 157.94 179.96 152.75 173.75   C 150.93 171.57 148.92 169.72 147.48 167.21   Q 142.65 158.85 144.89 149.31   A 0.55 0.55 0.0 0 0 144.13 148.68   C 138.43 151.18 132.56 153.86 126.46 155.03   C 121.74 155.93 116.71 155.41 111.95 155.55   C 103.67 155.78 96.17 152.83 89.28 147.87   Q 82.61 143.06 79.17 137.28   A 0.82 0.82 0.0 0 0 78.12 136.96   C 71.12 140.29 62.90 141.01 55.86 138.50   Q 40.04 132.86 35.83 116.74   Q 35.09 113.91 35.19 110.17   C 35.29 106.44 37.00 102.70 39.50 100.25   Q 40.77 99.00 43.26 98.04   Q 45.42 97.20 47.16 96.21   Q 53.63 96.37 59.74 97.14   C 70.62 98.51 78.31 106.28 82.05 116.17   A 0.75 0.74 81.7 0 1 81.30 117.18   Q 75.24 116.74 70.36 118.75   Q 67.53 119.91 70.58 120.10   Q 85.12 121.00 94.61 131.44   Q 95.95 132.92 95.54 130.97   Q 94.12 124.13 89.25 119.63   A 0.64 0.64 0.0 0 1 89.51 118.54   Q 100.31 115.39 109.90 115.66   Q 110.78 115.69 110.21 115.03   C 100.89 104.20 102.34 85.62 116.18 79.14   C 126.46 74.32 137.70 77.70 142.26 88.52   C 144.18 93.07 144.24 98.67 141.83 103.17   Q 140.80 105.07 142.64 103.93   C 152.60 97.72 166.54 97.97 177.15 101.92   C 181.41 103.50 185.60 105.20 189.13 108.03   Q 191.45 109.89 188.48 109.86   C 178.62 109.77 168.35 113.58 163.94 122.48   Q 162.39 125.61 165.09 123.39   C 167.66 121.29 170.41 119.43 173.56 118.22   C 186.97 113.03 203.09 112.94 215.57 121.10   A 0.76 0.76 0.0 0 0 216.74 120.35   Q 216.07 115.89 219.12 113.60   C 223.45 110.37 229.47 112.62 231.94 117.20   Q 232.38 118.03 232.85 117.21   C 233.65 115.81 234.26 113.87 235.30 112.69   Q 245.06 101.60 259.15 106.09   A 0.40 0.40 0.0 0 0 259.65 105.58   C 255.84 94.70 244.27 95.16 235.06 97.54   Q 229.65 98.93 234.19 95.67   Q 245.31 87.70 259.23 89.21   C 271.28 90.53 282.53 98.23 286.25 109.93   A 0.41 0.40 54.5 0 0 286.96 110.05   C 292.90 101.99 303.21 97.48 313.28 98.94   C 321.43 100.13 329.36 106.25 334.32 112.67   A 0.71 0.70 -49.6 0 0 335.50 112.57   Q 341.38 101.80 353.43 100.79   Q 362.24 100.05 370.05 103.56   Q 371.65 104.28 369.89 104.26   Q 356.28 104.08 349.46 116.49   Q 348.78 117.73 350.13 117.32   Q 358.52 114.76 367.86 116.67   C 369.88 117.09 371.68 118.01 373.67 118.41   Q 374.20 118.52 374.72 118.37   L 380.67 116.74   Q 381.24 116.59 381.56 116.09   Q 382.32 114.90 382.96 113.62   C 385.35 108.88 389.69 106.28 395.19 105.83   C 402.51 105.23 408.71 108.30 414.44 113.06   A 0.90 0.90 0.0 0 0 415.66 112.99   Q 428.71 99.43 447.74 100.37   C 451.20 100.54 454.63 101.45 458.02 102.21   C 462.74 103.26 468.13 101.45 472.99 100.19   Q 490.91 95.52 509.99 94.60   Q 516.70 94.27 523.00 95.01   Q 524.45 95.18 525.65 95.94   Q 526.77 96.65 527.86 96.18   Z"/>
</svg>