<svg xmlns="http://www.w3.org/2000/svg" version="1.1" viewBox="0.00 0.00 671.00 203.00">
<path stroke="#e6f0fb" stroke-width="2.00" fill="none" stroke-linecap="butt" vector-effect="non-scaling-stroke" d="   M 652.19 98.69   Q 651.58 98.12 651.10 97.46   Q 650.62 96.81 650.48 96.00   Q 650.07 93.50 648.92 91.19   Q 639.02 71.22 615.84 70.76   C 600.65 70.46 587.52 78.78 583.61 93.66   Q 583.39 94.47 582.94 93.77   C 578.09 86.37 569.48 90.39 565.97 96.52   Q 565.46 97.42 564.91 98.28   Q 563.55 100.40 563.66 97.88   Q 563.86 92.99 562.01 88.61   Q 555.20 72.52 538.40 68.00   C 525.87 64.62 511.39 71.98 502.45 80.29   Q 486.86 94.80 487.35 116.82   Q 487.37 117.69 487.59 118.57   A 0.71 0.71 0.0 0 0 488.72 118.96   Q 492.05 116.28 496.04 115.03   Q 515.77 108.83 531.37 121.37   Q 533.38 122.99 535.00 125.32   Q 535.63 126.24 534.68 125.66   C 532.74 124.47 530.82 123.32 528.66 122.53   C 516.18 117.95 501.94 120.42 491.73 129.05   C 489.92 130.59 488.50 132.69 486.89 134.47   A 0.42 0.42 0.0 0 1 486.17 134.29   Q 484.93 129.44 481.29 126.17   Q 472.70 118.41 461.27 120.80   C 459.67 121.13 458.23 122.02 456.82 122.80   Q 455.26 123.66 456.32 122.23   C 460.32 116.78 464.10 111.16 462.93 104.24   Q 461.53 96.02 453.79 94.01   Q 453.11 93.83 453.21 93.13   C 454.82 81.17 454.81 67.16 443.11 60.45   C 438.17 57.61 431.37 58.18 427.10 62.09   C 420.76 67.89 418.11 77.31 416.96 86.00   A 1.21 1.20 4.3 0 1 415.74 87.04   C 404.11 86.78 393.70 95.55 392.36 107.06   Q 392.30 107.53 391.84 107.57   A 0.66 0.64 70.1 0 1 391.23 107.27   C 385.13 97.56 388.67 84.88 399.16 80.34   A 0.75 0.74 -37.1 0 0 399.34 79.08   Q 395.08 75.63 389.45 76.28   C 375.19 77.92 371.61 92.90 375.52 104.59   Q 375.57 104.74 375.52 104.89   Q 375.19 105.83 374.39 105.24   C 362.39 96.49 343.40 98.42 334.12 110.10   A 0.78 0.78 0.0 0 0 334.60 111.36   Q 337.82 111.88 340.90 112.58   Q 354.30 115.64 364.47 125.06   Q 365.38 125.91 364.23 125.44   C 351.83 120.35 338.69 121.46 327.99 128.89   A 0.38 0.37 67.8 0 1 327.41 128.64   C 327.20 127.29 327.11 125.76 326.45 124.56   Q 321.79 116.08 311.77 116.08   Q 308.19 116.09 305.44 118.15   A 0.58 0.58 0.0 0 1 304.55 117.88   C 302.54 112.27 297.54 108.26 291.80 107.00   Q 281.68 104.76 275.71 112.73   C 272.11 117.53 271.10 123.91 273.34 129.65   Q 273.82 130.87 272.77 130.09   Q 257.03 118.27 236.73 123.90   Q 236.44 123.98 236.30 124.25   Q 236.22 124.43 236.30 124.56   Q 236.48 124.85 236.83 124.87   C 239.01 125.01 241.17 124.99 243.24 125.69   Q 253.05 128.99 258.56 136.89   Q 258.84 137.29 258.36 137.40   Q 257.97 137.48 257.60 137.30   C 246.49 131.69 234.60 130.69 222.24 132.54   A 2.94 2.92 -30.5 0 1 220.01 131.97   C 200.92 117.31 173.19 117.19 156.85 135.59   A 0.44 0.43 -31.3 0 1 156.10 135.41   Q 154.18 127.72 160.33 122.73   Q 161.95 121.43 159.88 121.26   C 148.44 120.36 134.74 122.95 125.62 130.68   A 1.01 1.01 0.0 0 1 124.38 130.73   C 112.85 122.56 97.26 125.03 84.98 129.96   C 79.92 132.00 73.78 132.14 68.50 131.93   Q 49.32 131.19 30.25 128.93   Q 26.55 128.49 17.03 128.52"/>
<path fill="#a8d0ff" d="   M 652.19 98.69   Q 651.58 98.12 651.10 97.46   Q 650.62 96.81 650.48 96.00   Q 650.07 93.50 648.92 91.19   Q 639.02 71.22 615.84 70.76   C 600.65 70.46 587.52 78.78 583.61 93.66   Q 583.39 94.47 582.94 93.77   C 578.09 86.37 569.48 90.39 565.97 96.52   Q 565.46 97.42 564.91 98.28   Q 563.55 100.40 563.66 97.88   Q 563.86 92.99 562.01 88.61   Q 555.20 72.52 538.40 68.00   C 525.87 64.62 511.39 71.98 502.45 80.29   Q 486.86 94.80 487.35 116.82   Q 487.37 117.69 487.59 118.57   A 0.71 0.71 0.0 0 0 488.72 118.96   Q 492.05 116.28 496.04 115.03   Q 515.77 108.83 531.37 121.37   Q 533.38 122.99 535.00 125.32   Q 535.63 126.24 534.68 125.66   C 532.74 124.47 530.82 123.32 528.66 122.53   C 516.18 117.95 501.94 120.42 491.73 129.05   C 489.92 130.59 488.50 132.69 486.89 134.47   A 0.42 0.42 0.0 0 1 486.17 134.29   Q 484.93 129.44 481.29 126.17   Q 472.70 118.41 461.27 120.80   C 459.67 121.13 458.23 122.02 456.82 122.80   Q 455.26 123.66 456.32 122.23   C 460.32 116.78 464.10 111.16 462.93 104.24   Q 461.53 96.02 453.79 94.01   Q 453.11 93.83 453.21 93.13   C 454.82 81.17 454.81 67.16 443.11 60.45   C 438.17 57.61 431.37 58.18 427.10 62.09   C 420.76 67.89 418.11 77.31 416.96 86.00   A 1.21 1.20 4.3 0 1 415.74 87.04   C 404.11 86.78 393.70 95.55 392.36 107.06   Q 392.30 107.53 391.84 107.57   A 0.66 0.64 70.1 0 1 391.23 107.27   C 385.13 97.56 388.67 84.88 399.16 80.34   A 0.75 0.74 -37.1 0 0 399.34 79.08   Q 395.08 75.63 389.45 76.28   C 375.19 77.92 371.61 92.90 375.52 104.59   Q 375.57 104.74 375.52 104.89   Q 375.19 105.83 374.39 105.24   C 362.39 96.49 343.40 98.42 334.12 110.10   A 0.78 0.78 0.0 0 0 334.60 111.36   Q 337.82 111.88 340.90 112.58   Q 354.30 115.64 364.47 125.06   Q 365.38 125.91 364.23 125.44   C 351.83 120.35 338.69 121.46 327.99 128.89   A 0.38 0.37 67.8 0 1 327.41 128.64   C 327.20 127.29 327.11 125.76 326.45 124.56   Q 321.79 116.08 311.77 116.08   Q 308.19 116.09 305.44 118.15   A 0.58 0.58 0.0 0 1 304.55 117.88   C 302.54 112.27 297.54 108.26 291.80 107.00   Q 281.68 104.76 275.71 112.73   C 272.11 117.53 271.10 123.91 273.34 129.65   Q 273.82 130.87 272.77 130.09   Q 257.03 118.27 236.73 123.90   Q 236.44 123.98 236.30 124.25   Q 236.22 124.43 236.30 124.56   Q 236.48 124.85 236.83 124.87   C 239.01 125.01 241.17 124.99 243.24 125.69   Q 253.05 128.99 258.56 136.89   Q 258.84 137.29 258.36 137.40   Q 257.97 137.48 257.60 137.30   C 246.49 131.69 234.60 130.69 222.24 132.54   A 2.94 2.92 -30.5 0 1 220.01 131.97   C 200.92 117.31 173.19 117.19 156.85 135.59   A 0.44 0.43 -31.3 0 1 156.10 135.41   Q 154.18 127.72 160.33 122.73   Q 161.95 121.43 159.88 121.26   C 148.44 120.36 134.74 122.95 125.62 130.68   A 1.01 1.01 0.0 0 1 124.38 130.73   C 112.85 122.56 97.26 125.03 84.98 129.96   C 79.92 132.00 73.78 132.14 68.50 131.93   Q 49.32 131.19 30.25 128.93   Q 26.55 128.49 17.03 128.52   L 12.27 126.63   A 0.48 0.48 0.0 0 1 12.01 125.99   C 14.41 120.39 15.31 115.81 22.79 114.71   Q 26.68 114.14 30.56 114.64   Q 34.41 115.13 38.25 115.28   Q 42.63 115.44 46.99 115.55   Q 58.94 115.86 70.89 111.07   Q 76.17 108.96 81.33 106.76   C 85.89 104.83 90.77 103.64 95.58 102.53   Q 103.95 100.60 110.18 101.37   Q 114.27 101.87 120.09 104.13   C 125.18 106.10 129.27 109.73 132.75 114.01   Q 133.26 114.63 133.68 113.94   C 136.37 109.53 140.13 105.46 145.18 104.28   C 148.68 103.46 152.55 102.58 156.05 102.76   C 161.12 103.02 167.19 104.03 171.02 108.01   Q 171.98 109.01 172.91 107.99   C 175.77 104.83 178.76 101.24 182.17 98.84   Q 196.63 88.65 214.32 92.85   C 217.88 93.70 221.28 95.65 224.29 97.60   Q 227.63 99.75 231.86 104.86   A 0.84 0.84 0.0 0 0 233.10 104.92   C 239.14 98.86 246.05 94.47 254.58 92.58   Q 260.59 91.25 266.10 90.42   C 272.67 89.42 281.17 92.02 287.16 94.56   A 0.80 0.80 0.0 0 0 288.26 93.68   C 287.37 88.70 289.95 83.66 294.06 81.75   Q 295.78 80.95 298.82 80.09   C 300.32 79.66 301.56 80.08 302.99 80.42   A 0.74 0.74 0.0 0 0 303.86 79.45   C 300.82 70.83 300.63 59.06 306.07 51.71   Q 308.74 48.10 313.21 44.57   C 317.87 40.90 325.00 38.74 330.62 38.12   Q 336.82 37.43 343.02 39.14   Q 346.01 39.96 349.28 40.91   C 354.10 42.29 358.85 44.52 363.04 47.11   A 0.85 0.85 0.0 0 0 364.34 46.37   C 364.27 41.81 366.84 37.88 369.88 34.12   C 374.22 28.77 379.66 28.81 386.50 28.98   C 392.89 29.13 397.29 32.70 400.17 38.21   A 0.71 0.71 0.0 0 0 401.47 38.12   Q 405.35 27.35 415.76 22.94   C 419.56 21.33 424.15 19.48 428.40 19.69   C 432.91 19.92 437.30 19.17 441.64 20.58   C 451.29 23.72 458.81 28.57 463.59 37.92   Q 465.22 41.10 465.51 44.36   Q 465.58 45.14 466.10 44.55   C 468.66 41.68 471.93 37.22 476.27 37.50   C 479.02 37.68 481.84 37.15 484.44 38.25   Q 486.32 39.04 488.00 40.25   A 1.09 1.08 27.6 0 0 489.66 39.73   C 492.07 32.94 494.88 27.38 500.31 22.40   Q 508.47 14.91 518.34 12.05   C 522.60 10.82 527.18 9.56 531.62 8.99   Q 544.81 7.32 557.57 11.58   Q 579.68 18.96 587.98 40.68   A 1.78 1.78 0.0 0 0 590.38 41.66   C 595.31 39.41 599.74 37.73 605.24 39.15   Q 617.84 42.38 621.24 55.17   C 621.90 57.65 621.52 60.09 621.65 62.62   Q 621.69 63.39 622.45 63.52   C 631.74 65.11 640.64 69.83 646.08 77.41   C 648.47 80.72 649.92 84.86 651.55 88.73   Q 652.48 90.95 652.19 98.69   Z"/>
<path fill="#83c1fd" d="   M 652.19 98.69   Q 652.49 104.63 651.43 108.71   Q 651.00 110.37 649.04 115.60   Q 647.55 119.55 645.87 122.21   C 641.39 129.29 630.48 134.05 622.58 134.41   Q 616.63 134.68 611.10 134.43   Q 606.33 134.22 602.66 130.83   Q 601.75 129.98 601.78 131.23   C 602.00 139.69 599.72 147.21 593.23 152.91   Q 590.03 155.73 584.71 157.12   Q 578.76 158.68 575.39 158.75   Q 569.80 158.87 563.68 155.85   Q 562.49 155.27 562.39 156.59   Q 561.97 162.11 558.18 167.15   C 555.94 170.13 553.57 173.19 550.79 175.72   Q 540.40 185.17 527.00 189.65   C 523.28 190.90 519.51 191.45 515.75 192.35   Q 513.65 192.86 511.37 192.95   Q 502.31 193.33 496.07 191.79   C 483.06 188.59 470.95 183.44 461.99 174.32   Q 457.91 170.15 455.64 166.15   Q 453.22 161.87 451.85 157.18   A 0.96 0.95 69.8 0 0 450.55 156.57   Q 432.40 164.63 416.28 153.57   Q 415.73 153.20 415.20 153.59   Q 412.49 155.56 409.56 157.67   C 403.75 161.85 394.72 166.38 386.77 167.79   C 382.12 168.61 377.84 170.04 372.99 170.03   C 369.69 170.03 366.61 170.08 363.33 169.48   Q 358.39 168.57 354.17 167.44   Q 350.08 166.34 344.90 163.61   Q 338.73 160.34 336.00 156.01   Q 334.54 153.71 333.12 151.03   C 331.11 147.25 331.10 143.93 331.28 139.88   Q 331.37 137.84 329.83 139.18   Q 325.44 142.99 318.99 144.74   Q 309.30 147.36 303.78 147.57   Q 298.62 147.77 289.95 144.89   C 288.46 144.40 287.22 143.69 285.97 142.76   A 0.64 0.64 0.0 0 0 285.00 143.03   C 281.19 152.29 276.35 159.12 267.26 163.44   Q 264.63 164.69 261.66 165.99   C 256.67 168.17 251.13 168.16 245.84 167.72   Q 241.72 167.38 237.10 164.94   Q 229.40 160.88 223.17 157.02   Q 221.15 155.77 218.80 154.88   Q 218.21 154.65 217.66 154.99   C 212.71 158.05 207.92 160.62 202.48 162.61   Q 199.65 163.64 196.73 163.53   C 194.09 163.43 191.40 163.78 188.81 163.08   Q 181.39 161.07 176.15 155.35   C 173.74 152.73 171.28 149.83 170.22 146.31   A 0.67 0.67 0.0 0 0 169.23 145.93   C 164.32 148.89 158.93 149.68 153.39 150.72   Q 150.97 151.18 148.45 150.60   C 143.06 149.37 137.99 149.01 132.65 146.97   C 128.29 145.31 123.61 143.42 120.00 140.48   C 118.79 139.49 117.25 140.27 115.82 140.44   Q 97.68 142.62 78.09 140.99   Q 71.53 140.45 65.13 139.15   C 59.27 137.95 53.33 137.53 47.55 136.22   C 40.33 134.58 33.11 133.34 25.99 131.23   Q 21.61 129.93 17.03 128.52   Q 26.55 128.49 30.25 128.93   Q 49.32 131.19 68.50 131.93   C 73.78 132.14 79.92 132.00 84.98 129.96   C 97.26 125.03 112.85 122.56 124.38 130.73   A 1.01 1.01 0.0 0 0 125.62 130.68   C 134.74 122.95 148.44 120.36 159.88 121.26   Q 161.95 121.43 160.33 122.73   Q 154.18 127.72 156.10 135.41   A 0.44 0.43 -31.3 0 0 156.85 135.59   C 173.19 117.19 200.92 117.31 220.01 131.97   A 2.94 2.92 -30.5 0 0 222.24 132.54   C 234.60 130.69 246.49 131.69 257.60 137.30   Q 257.97 137.48 258.36 137.40   Q 258.84 137.29 258.56 136.89   Q 253.05 128.99 243.24 125.69   C 241.17 124.99 239.01 125.01 236.83 124.87   Q 236.48 124.85 236.30 124.56   Q 236.22 124.43 236.30 124.25   Q 236.44 123.98 236.73 123.90   Q 257.03 118.27 272.77 130.09   Q 273.82 130.87 273.34 129.65   C 271.10 123.91 272.11 117.53 275.71 112.73   Q 281.68 104.76 291.80 107.00   C 297.54 108.26 302.54 112.27 304.55 117.88   A 0.58 0.58 0.0 0 0 305.44 118.15   Q 308.19 116.09 311.77 116.08   Q 321.79 116.08 326.45 124.56   C 327.11 125.76 327.20 127.29 327.41 128.64   A 0.38 0.37 67.8 0 0 327.99 128.89   C 338.69 121.46 351.83 120.35 364.23 125.44   Q 365.38 125.91 364.47 125.06   Q 354.30 115.64 340.90 112.58   Q 337.82 111.88 334.60 111.36   A 0.78 0.78 0.0 0 1 334.12 110.10   C 343.40 98.42 362.39 96.49 374.39 105.24   Q 375.19 105.83 375.52 104.89   Q 375.57 104.74 375.52 104.59   C 371.61 92.90 375.19 77.92 389.45 76.28   Q 395.08 75.63 399.34 79.08   A 0.75 0.74 -37.1 0 1 399.16 80.34   C 388.67 84.88 385.13 97.56 391.23 107.27   A 0.66 0.64 70.1 0 0 391.84 107.57   Q 392.30 107.53 392.36 107.06   C 393.70 95.55 404.11 86.78 415.74 87.04   A 1.21 1.20 4.3 0 0 416.96 86.00   C 418.11 77.31 420.76 67.89 427.10 62.09   C 431.37 58.18 438.17 57.61 443.11 60.45   C 454.81 67.16 454.82 81.17 453.21 93.13   Q 453.11 93.83 453.79 94.01   Q 461.53 96.02 462.93 104.24   C 464.10 111.16 460.32 116.78 456.32 122.23   Q 455.26 123.66 456.82 122.80   C 458.23 122.02 459.67 121.13 461.27 120.80   Q 472.70 118.41 481.29 126.17   Q 484.93 129.44 486.17 134.29   A 0.42 0.42 0.0 0 0 486.89 134.47   C 488.50 132.69 489.92 130.59 491.73 129.05   C 501.94 120.42 516.18 117.95 528.66 122.53   C 530.82 123.32 532.74 124.47 534.68 125.66   Q 535.63 126.24 535.00 125.32   Q 533.38 122.99 531.37 121.37   Q 515.77 108.83 496.04 115.03   Q 492.05 116.28 488.72 118.96   A 0.71 0.71 0.0 0 1 487.59 118.57   Q 487.37 117.69 487.35 116.82   Q 486.86 94.80 502.45 80.29   C 511.39 71.98 525.87 64.62 538.40 68.00   Q 555.20 72.52 562.01 88.61   Q 563.86 92.99 563.66 97.88   Q 563.55 100.40 564.91 98.28   Q 565.46 97.42 565.97 96.52   C 569.48 90.39 578.09 86.37 582.94 93.77   Q 583.39 94.47 583.61 93.66   C 587.52 78.78 600.65 70.46 615.84 70.76   Q 639.02 71.22 648.92 91.19   Q 650.07 93.50 650.48 96.00   Q 650.62 96.81 651.10 97.46   Q 651.58 98.12 652.19 98.69   Z"/>
</svg>