<svg xmlns="http://www.w3.org/2000/svg" version="1.1" viewBox="0.00 0.00 514.00 192.00">
<path stroke="#e6f0fb" stroke-width="2.00" fill="none" stroke-linecap="butt" vector-effect="non-scaling-stroke" d="   M 481.96 92.94   Q 454.33 84.41 441.12 108.77   A 0.47 0.47 0.0 0 1 440.30 108.79   C 438.42 105.64 435.58 102.21 432.14 100.87   Q 422.87 97.24 417.82 106.22   A 0.44 0.44 0.0 0 1 417.08 106.26   C 409.66 95.46 397.02 88.37 384.21 86.35   C 372.98 84.58 363.84 88.85 355.43 96.09   A 0.82 0.82 0.0 0 0 355.58 97.44   C 358.42 98.94 361.53 100.04 364.23 101.89   C 373.48 108.21 377.96 117.88 378.80 129.17   Q 378.96 131.31 377.82 129.50   C 366.04 110.87 340.50 104.55 319.40 103.27   Q 317.87 103.17 319.03 102.18   Q 328.83 93.73 341.89 94.57   A 0.63 0.62 -16.1 0 0 342.44 93.58   Q 330.13 76.92 309.82 77.85   Q 305.69 78.04 301.87 79.33   A 0.67 0.66 -11.7 0 1 300.99 78.76   C 300.46 72.18 297.47 65.84 292.36 61.63   C 283.94 54.69 271.80 57.44 264.71 65.29   Q 256.52 74.35 257.38 87.54   Q 257.44 88.52 256.47 88.41   Q 245.43 87.16 237.26 96.76   Q 233.19 101.55 230.56 107.75   Q 230.52 107.84 230.43 107.81   L 230.16 107.72   Q 229.80 107.59 229.89 107.22   C 232.42 97.20 236.46 87.54 244.01 80.40   A 0.82 0.81 41.5 0 0 243.93 79.15   C 237.43 74.36 228.07 72.66 220.79 75.09   Q 208.17 79.31 206.57 92.69   A 0.68 0.68 0.0 0 1 205.54 93.19   C 199.83 89.68 192.86 88.27 187.24 92.73   Q 182.16 96.78 183.47 104.26   A 0.61 0.61 0.0 0 1 182.66 104.94   Q 178.29 103.32 173.13 102.67   C 164.36 101.57 160.61 109.06 157.71 115.64   A 0.62 0.62 0.0 0 0 158.44 116.48   C 170.92 113.02 183.24 116.98 191.85 126.34   Q 193.32 127.93 191.42 126.89   Q 170.89 115.58 148.88 126.58   A 0.23 0.23 0.0 0 1 148.55 126.38   Q 148.44 118.48 142.33 113.78   Q 133.50 106.99 124.03 111.34   Q 123.46 111.60 123.30 111.00   C 120.12 99.76 108.18 93.86 97.34 96.55   Q 88.14 98.84 85.30 109.17   C 84.91 110.61 85.14 112.10 84.82 113.53   Q 84.55 114.75 83.96 113.64   C 79.51 105.34 70.88 103.17 62.00 102.89   C 49.89 102.52 37.64 102.22 25.52 101.01   Q 22.56 100.71 19.27 99.99   Q 16.42 99.36 13.07 98.71"/>
<path fill="#b6daff" d="   M 481.96 92.94   Q 454.33 84.41 441.12 108.77   A 0.47 0.47 0.0 0 1 440.30 108.79   C 438.42 105.64 435.58 102.21 432.14 100.87   Q 422.87 97.24 417.82 106.22   A 0.44 0.44 0.0 0 1 417.08 106.26   C 409.66 95.46 397.02 88.37 384.21 86.35   C 372.98 84.58 363.84 88.85 355.43 96.09   A 0.82 0.82 0.0 0 0 355.58 97.44   C 358.42 98.94 361.53 100.04 364.23 101.89   C 373.48 108.21 377.96 117.88 378.80 129.17   Q 378.96 131.31 377.82 129.50   C 366.04 110.87 340.50 104.55 319.40 103.27   Q 317.87 103.17 319.03 102.18   Q 328.83 93.73 341.89 94.57   A 0.63 0.62 -16.1 0 0 342.44 93.58   Q 330.13 76.92 309.82 77.85   Q 305.69 78.04 301.87 79.33   A 0.67 0.66 -11.7 0 1 300.99 78.76   C 300.46 72.18 297.47 65.84 292.36 61.63   C 283.94 54.69 271.80 57.44 264.71 65.29   Q 256.52 74.35 257.38 87.54   Q 257.44 88.52 256.47 88.41   Q 245.43 87.16 237.26 96.76   Q 233.19 101.55 230.56 107.75   Q 230.52 107.84 230.43 107.81   L 230.16 107.72   Q 229.80 107.59 229.89 107.22   C 232.42 97.20 236.46 87.54 244.01 80.40   A 0.82 0.81 41.5 0 0 243.93 79.15   C 237.43 74.36 228.07 72.66 220.79 75.09   Q 208.17 79.31 206.57 92.69   A 0.68 0.68 0.0 0 1 205.54 93.19   C 199.83 89.68 192.86 88.27 187.24 92.73   Q 182.16 96.78 183.47 104.26   A 0.61 0.61 0.0 0 1 182.66 104.94   Q 178.29 103.32 173.13 102.67   C 164.36 101.57 160.61 109.06 157.71 115.64   A 0.62 0.62 0.0 0 0 158.44 116.48   C 170.92 113.02 183.24 116.98 191.85 126.34   Q 193.32 127.93 191.42 126.89   Q 170.89 115.58 148.88 126.58   A 0.23 0.23 0.0 0 1 148.55 126.38   Q 148.44 118.48 142.33 113.78   Q 133.50 106.99 124.03 111.34   Q 123.46 111.60 123.30 111.00   C 120.12 99.76 108.18 93.86 97.34 96.55   Q 88.14 98.84 85.30 109.17   C 84.91 110.61 85.14 112.10 84.82 113.53   Q 84.55 114.75 83.96 113.64   C 79.51 105.34 70.88 103.17 62.00 102.89   C 49.89 102.52 37.64 102.22 25.52 101.01   Q 22.56 100.71 19.27 99.99   Q 16.42 99.36 13.07 98.71   Q 21.20 93.51 30.09 90.16   C 34.00 88.69 37.70 88.07 41.61 87.16   Q 43.95 86.61 46.49 86.37   Q 60.43 85.03 73.97 89.75   A 1.18 1.17 -66.1 0 0 75.39 89.19   Q 76.96 86.24 79.64 84.78   Q 90.93 78.61 100.54 87.06   A 0.70 0.69 -43.2 0 0 101.43 87.08   Q 110.30 80.10 122.11 76.97   Q 123.84 76.51 125.55 76.42   C 128.38 76.28 130.53 75.18 133.44 75.98   C 135.53 76.56 137.68 76.34 139.86 76.90   Q 145.20 78.28 149.67 80.72   A 0.50 0.50 0.0 0 0 150.41 80.29   Q 150.72 67.40 164.67 68.56   Q 165.77 68.65 165.45 67.60   C 165.20 66.77 164.73 66.06 164.64 65.20   Q 163.69 55.56 167.18 47.60   C 173.07 34.14 186.08 28.08 200.21 33.14   A 0.96 0.96 0.0 0 0 201.46 32.47   C 203.78 23.37 212.06 16.16 220.60 13.25   Q 229.47 10.23 238.55 13.28   Q 251.68 17.70 257.16 29.93   A 0.68 0.68 0.0 0 0 258.18 30.21   C 263.31 26.53 270.39 24.26 276.69 25.89   Q 283.35 27.62 288.21 32.86   C 289.01 33.72 289.37 35.06 290.26 35.77   Q 290.70 36.12 291.25 36.03   Q 299.40 34.77 306.72 38.50   A 0.59 0.58 -63.7 0 0 307.51 38.23   C 308.92 35.21 310.07 32.00 311.99 29.31   Q 322.62 14.47 341.65 11.24   C 344.41 10.78 346.79 12.23 349.51 11.99   Q 352.75 11.69 355.74 12.36   Q 371.13 15.81 380.87 29.33   C 383.46 32.92 385.00 37.34 386.76 41.41   A 1.77 1.76 -11.1 0 0 388.33 42.46   Q 394.84 42.61 400.77 44.71   Q 414.97 49.72 422.56 61.83   A 1.00 0.99 65.8 0 0 423.68 62.26   Q 426.50 61.45 429.47 60.60   Q 432.06 59.84 435.42 59.76   Q 442.77 59.58 446.03 60.01   Q 457.14 61.47 466.49 68.77   Q 468.34 70.22 472.05 74.22   Q 475.06 77.46 476.78 80.37   Q 480.34 86.35 481.96 92.94   Z"/>
<path fill="#77bbff" d="   M 481.96 92.94   Q 482.93 97.39 483.54 101.25   Q 483.87 103.34 482.85 109.38   Q 482.13 113.64 480.81 117.53   Q 475.66 132.79 461.58 141.02   C 449.14 148.29 433.96 148.98 421.07 143.05   A 1.04 1.04 0.0 0 0 419.88 143.26   Q 414.28 148.93 405.99 149.43   C 400.81 149.74 395.57 149.81 390.81 146.72   A 0.50 0.50 0.0 0 0 390.04 147.09   C 389.74 150.56 388.47 154.10 386.59 157.05   C 379.74 167.79 368.93 174.02 356.21 175.56   Q 352.13 176.05 347.56 175.11   Q 341.25 173.81 337.15 171.85   Q 336.51 171.55 336.27 172.21   C 334.06 178.17 325.72 181.92 320.18 182.15   C 311.15 182.52 302.23 175.85 300.69 167.13   A 0.87 0.86 63.7 0 0 299.26 166.64   C 292.19 173.11 281.76 176.57 272.20 175.72   Q 259.30 174.57 248.88 168.21   Q 243.35 164.83 240.26 160.27   Q 239.61 159.30 238.98 160.28   Q 231.90 171.37 219.39 174.92   C 213.31 176.64 207.36 175.92 201.25 176.09   C 195.02 176.27 188.05 172.76 183.95 168.63   Q 176.40 161.03 174.13 148.53   Q 174.03 148.01 173.53 148.16   Q 161.45 151.63 151.91 142.88   A 0.47 0.46 -44.0 0 0 151.30 142.87   Q 140.25 152.10 127.32 153.78   C 122.95 154.34 118.32 154.07 113.75 154.11   C 104.39 154.21 96.40 148.43 92.89 140.11   Q 91.09 135.84 90.24 130.42   Q 90.02 129.02 88.60 128.94   Q 84.94 128.75 81.00 127.05   Q 74.19 124.10 74.04 116.94   A 0.84 0.82 1.9 0 0 73.27 116.13   Q 51.90 114.36 30.98 108.08   Q 23.84 105.94 17.13 102.88   Q 14.13 101.51 13.07 98.71   Q 16.42 99.36 19.27 99.99   Q 22.56 100.71 25.52 101.01   C 37.64 102.22 49.89 102.52 62.00 102.89   C 70.88 103.17 79.51 105.34 83.96 113.64   Q 84.55 114.75 84.82 113.53   C 85.14 112.10 84.91 110.61 85.30 109.17   Q 88.14 98.84 97.34 96.55   C 108.18 93.86 120.12 99.76 123.30 111.00   Q 123.46 111.60 124.03 111.34   Q 133.50 106.99 142.33 113.78   Q 148.44 118.48 148.55 126.38   A 0.23 0.23 0.0 0 0 148.88 126.58   Q 170.89 115.58 191.42 126.89   Q 193.32 127.93 191.85 126.34   C 183.24 116.98 170.92 113.02 158.44 116.48   A 0.62 0.62 0.0 0 1 157.71 115.64   C 160.61 109.06 164.36 101.57 173.13 102.67   Q 178.29 103.32 182.66 104.94   A 0.61 0.61 0.0 0 0 183.47 104.26   Q 182.16 96.78 187.24 92.73   C 192.86 88.27 199.83 89.68 205.54 93.19   A 0.68 0.68 0.0 0 0 206.57 92.69   Q 208.17 79.31 220.79 75.09   C 228.07 72.66 237.43 74.36 243.93 79.15   A 0.82 0.81 41.5 0 1 244.01 80.40   C 236.46 87.54 232.42 97.20 229.89 107.22   Q 229.80 107.59 230.16 107.72   L 230.43 107.81   Q 230.52 107.84 230.56 107.75   Q 233.19 101.55 237.26 96.76   Q 245.43 87.16 256.47 88.41   Q 257.44 88.52 257.38 87.54   Q 256.52 74.35 264.71 65.29   C 271.80 57.44 283.94 54.69 292.36 61.63   C 297.47 65.84 300.46 72.18 300.99 78.76   A 0.67 0.66 -11.7 0 0 301.87 79.33   Q 305.69 78.04 309.82 77.85   Q 330.13 76.92 342.44 93.58   A 0.63 0.62 -16.1 0 1 341.89 94.57   Q 328.83 93.73 319.03 102.18   Q 317.87 103.17 319.40 103.27   C 340.50 104.55 366.04 110.87 377.82 129.50   Q 378.96 131.31 378.80 129.17   C 377.96 117.88 373.48 108.21 364.23 101.89   C 361.53 100.04 358.42 98.94 355.58 97.44   A 0.82 0.82 0.0 0 1 355.43 96.09   C 363.84 88.85 372.98 84.58 384.21 86.35   C 397.02 88.37 409.66 95.46 417.08 106.26   A 0.44 0.44 0.0 0 0 417.82 106.22   Q 422.87 97.24 432.14 100.87   C 435.58 102.21 438.42 105.64 440.30 108.79   A 0.47 0.47 0.0 0 0 441.12 108.77   Q 454.33 84.41 481.96 92.94   Z"/>
</svg>