<svg id="visual" viewBox="0 0 900 600" width="900" height="600" xmlns="http://www.w3.org/2000/svg" xmlns:xlink="http://www.w3.org/1999/xlink" version="1.1"><path d="M0 109L13.7 115C27.3 121 54.7 133 82 144C109.3 155 136.7 165 163.8 170C191 175 218 175 245.2 185C272.3 195 299.7 215 327 215C354.3 215 381.7 195 409 196C436.3 197 463.7 219 491 230C518.3 241 545.7 241 573 223C600.3 205 627.7 169 654.8 164C682 159 709 185 736.2 194C763.3 203 790.7 195 818 188C845.3 181 872.7 175 886.3 172L900 169L900 0L886.3 0C872.7 0 845.3 0 818 0C790.7 0 763.3 0 736.2 0C709 0 682 0 654.8 0C627.7 0 600.3 0 573 0C545.7 0 518.3 0 491 0C463.7 0 436.3 0 409 0C381.7 0 354.3 0 327 0C299.7 0 272.3 0 245.2 0C218 0 191 0 163.8 0C136.7 0 109.3 0 82 0C54.7 0 27.3 0 13.7 0L0 0Z" fill="#87c4f1"></path><path d="M0 175L13.7 182C27.3 189 54.7 203 82 220C109.3 237 136.7 257 163.8 266C191 275 218 273 245.2 281C272.3 289 299.7 307 327 301C354.3 295 381.7 265 409 263C436.3 261 463.7 287 491 296C518.3 305 545.7 297 573 284C600.3 271 627.7 253 654.8 251C682 249 709 263 736.2 268C763.3 273 790.7 269 818 260C845.3 251 872.7 237 886.3 230L900 223L900 167L886.3 170C872.7 173 845.3 179 818 186C790.7 193 763.3 201 736.2 192C709 183 682 157 654.8 162C627.7 167 600.3 203 573 221C545.7 239 518.3 239 491 228C463.7 217 436.3 195 409 194C381.7 193 354.3 213 327 213C299.7 213 272.3 193 245.2 183C218 173 191 173 163.8 168C136.7 163 109.3 153 82 142C54.7 131 27.3 119 13.7 113L0 107Z" fill="#6ab6ef"></path><path d="M0 307L13.7 316C27.3 325 54.7 343 82 349C109.3 355 136.7 349 163.8 357C191 365 218 387 245.2 409C272.3 431 299.7 453 327 440C354.3 427 381.7 379 409 363C436.3 347 463.7 363 491 378C518.3 393 545.7 407 573 392C600.3 377 627.7 333 654.8 332C682 331 709 373 736.2 395C763.3 417 790.7 419 818 414C845.3 409 872.7 397 886.3 391L900 385L900 221L886.3 228C872.7 235 845.3 249 818 258C790.7 267 763.3 271 736.2 266C709 261 682 247 654.8 249C627.7 251 600.3 269 573 282C545.7 295 518.3 303 491 294C463.7 285 436.3 259 409 261C381.7 263 354.3 293 327 299C299.7 305 272.3 287 245.2 279C218 271 191 273 163.8 264C136.7 255 109.3 235 82 218C54.7 201 27.3 187 13.7 180L0 173Z" fill="#49a8ec"></path><path d="M0 559L13.7 553C27.3 547 54.7 535 82 525C109.3 515 136.7 507 163.8 501C191 495 218 491 245.2 499C272.3 507 299.7 527 327 535C354.3 543 381.7 539 409 540C436.3 541 463.7 547 491 551C518.3 555 545.7 557 573 549C600.3 541 627.7 523 654.8 513C682 503 709 501 736.2 505C763.3 509 790.7 519 818 520C845.3 521 872.7 513 886.3 509L900 505L900 383L886.3 389C872.7 395 845.3 407 818 412C790.7 417 763.3 415 736.2 393C709 371 682 329 654.8 330C627.7 331 600.3 375 573 390C545.7 405 518.3 391 491 376C463.7 361 436.3 345 409 361C381.7 377 354.3 425 327 438C299.7 451 272.3 429 245.2 407C218 385 191 363 163.8 355C136.7 347 109.3 353 82 347C54.7 341 27.3 323 13.7 314L0 305Z" fill="#3e92ce"></path><path d="M0 601L13.7 601C27.3 601 54.7 601 82 601C109.3 601 136.7 601 163.8 601C191 601 218 601 245.2 601C272.3 601 299.7 601 327 601C354.3 601 381.7 601 409 601C436.3 601 463.7 601 491 601C518.3 601 545.7 601 573 601C600.3 601 627.7 601 654.8 601C682 601 709 601 736.2 601C763.3 601 790.7 601 818 601C845.3 601 872.7 601 886.3 601L900 601L900 503L886.3 507C872.7 511 845.3 519 818 518C790.7 517 763.3 507 736.2 503C709 499 682 501 654.8 511C627.7 521 600.3 539 573 547C545.7 555 518.3 553 491 549C463.7 545 436.3 539 409 538C381.7 537 354.3 541 327 533C299.7 525 272.3 505 245.2 497C218 489 191 493 163.8 499C136.7 505 109.3 513 82 523C54.7 533 27.3 545 13.7 551L0 557Z" fill="#337cb1"></path></svg>