<svg id="visual" viewBox="0 0 900 600" width="900" height="600" xmlns="http://www.w3.org/2000/svg" xmlns:xlink="http://www.w3.org/1999/xlink" version="1.1"><path d="M0 91L13.7 82C27.3 73 54.7 55 82 52C109.3 49 136.7 61 163.8 64C191 67 218 61 245.2 54C272.3 47 299.7 39 327 44C354.3 49 381.7 67 409 67C436.3 67 463.7 49 491 43C518.3 37 545.7 43 573 47C600.3 51 627.7 53 654.8 53C682 53 709 51 736.2 48C763.3 45 790.7 41 818 44C845.3 47 872.7 57 886.3 62L900 67L900 0L886.3 0C872.7 0 845.3 0 818 0C790.7 0 763.3 0 736.2 0C709 0 682 0 654.8 0C627.7 0 600.3 0 573 0C545.7 0 518.3 0 491 0C463.7 0 436.3 0 409 0C381.7 0 354.3 0 327 0C299.7 0 272.3 0 245.2 0C218 0 191 0 163.8 0C136.7 0 109.3 0 82 0C54.7 0 27.3 0 13.7 0L0 0Z" fill="#89b5ff"></path><path d="M0 151L13.7 153C27.3 155 54.7 159 82 161C109.3 163 136.7 163 163.8 159C191 155 218 147 245.2 146C272.3 145 299.7 151 327 158C354.3 165 381.7 173 409 168C436.3 163 463.7 145 491 134C518.3 123 545.7 119 573 120C600.3 121 627.7 127 654.8 125C682 123 709 113 736.2 113C763.3 113 790.7 123 818 135C845.3 147 872.7 161 886.3 168L900 175L900 65L886.3 60C872.7 55 845.3 45 818 42C790.7 39 763.3 43 736.2 46C709 49 682 51 654.8 51C627.7 51 600.3 49 573 45C545.7 41 518.3 35 491 41C463.7 47 436.3 65 409 65C381.7 65 354.3 47 327 42C299.7 37 272.3 45 245.2 52C218 59 191 65 163.8 62C136.7 59 109.3 47 82 50C54.7 53 27.3 71 13.7 80L0 89Z" fill="#73a8ff"></path><path d="M0 331L13.7 325C27.3 319 54.7 307 82 308C109.3 309 136.7 323 163.8 335C191 347 218 357 245.2 355C272.3 353 299.7 339 327 338C354.3 337 381.7 349 409 354C436.3 359 463.7 357 491 341C518.3 325 545.7 295 573 283C600.3 271 627.7 277 654.8 280C682 283 709 283 736.2 286C763.3 289 790.7 295 818 308C845.3 321 872.7 341 886.3 351L900 361L900 173L886.3 166C872.7 159 845.3 145 818 133C790.7 121 763.3 111 736.2 111C709 111 682 121 654.8 123C627.7 125 600.3 119 573 118C545.7 117 518.3 121 491 132C463.7 143 436.3 161 409 166C381.7 171 354.3 163 327 156C299.7 149 272.3 143 245.2 144C218 145 191 153 163.8 157C136.7 161 109.3 161 82 159C54.7 157 27.3 153 13.7 151L0 149Z" fill="#5b9bff"></path><path d="M0 397L13.7 391C27.3 385 54.7 373 82 376C109.3 379 136.7 397 163.8 409C191 421 218 427 245.2 418C272.3 409 299.7 385 327 382C354.3 379 381.7 397 409 404C436.3 411 463.7 407 491 389C518.3 371 545.7 339 573 331C600.3 323 627.7 339 654.8 345C682 351 709 347 736.2 348C763.3 349 790.7 355 818 368C845.3 381 872.7 401 886.3 411L900 421L900 359L886.3 349C872.7 339 845.3 319 818 306C790.7 293 763.3 287 736.2 284C709 281 682 281 654.8 278C627.7 275 600.3 269 573 281C545.7 293 518.3 323 491 339C463.7 355 436.3 357 409 352C381.7 347 354.3 335 327 336C299.7 337 272.3 351 245.2 353C218 355 191 345 163.8 333C136.7 321 109.3 307 82 306C54.7 305 27.3 317 13.7 323L0 329Z" fill="#498bf3"></path><path d="M0 469L13.7 458C27.3 447 54.7 425 82 426C109.3 427 136.7 451 163.8 472C191 493 218 511 245.2 511C272.3 511 299.7 493 327 483C354.3 473 381.7 471 409 478C436.3 485 463.7 501 491 493C518.3 485 545.7 453 573 436C600.3 419 627.7 417 654.8 417C682 417 709 419 736.2 426C763.3 433 790.7 445 818 463C845.3 481 872.7 505 886.3 517L900 529L900 419L886.3 409C872.7 399 845.3 379 818 366C790.7 353 763.3 347 736.2 346C709 345 682 349 654.8 343C627.7 337 600.3 321 573 329C545.7 337 518.3 369 491 387C463.7 405 436.3 409 409 402C381.7 395 354.3 377 327 380C299.7 383 272.3 407 245.2 416C218 425 191 419 163.8 407C136.7 395 109.3 377 82 374C54.7 371 27.3 383 13.7 389L0 395Z" fill="#407ada"></path><path d="M0 601L13.7 601C27.3 601 54.7 601 82 601C109.3 601 136.7 601 163.8 601C191 601 218 601 245.2 601C272.3 601 299.7 601 327 601C354.3 601 381.7 601 409 601C436.3 601 463.7 601 491 601C518.3 601 545.7 601 573 601C600.3 601 627.7 601 654.8 601C682 601 709 601 736.2 601C763.3 601 790.7 601 818 601C845.3 601 872.7 601 886.3 601L900 601L900 527L886.3 515C872.7 503 845.3 479 818 461C790.7 443 763.3 431 736.2 424C709 417 682 415 654.8 415C627.7 415 600.3 417 573 434C545.7 451 518.3 483 491 491C463.7 499 436.3 483 409 476C381.7 469 354.3 471 327 481C299.7 491 272.3 509 245.2 509C218 509 191 491 163.8 470C136.7 449 109.3 425 82 424C54.7 423 27.3 445 13.7 456L0 467Z" fill="#376ac2"></path></svg>