<svg id="visual" viewBox="0 0 960 540" width="960" height="540" xmlns="http://www.w3.org/2000/svg" xmlns:xlink="http://www.w3.org/1999/xlink" version="1.1"><path d="M0 71L14.5 75.5C29 80 58 89 87.2 92.7C116.3 96.3 145.7 94.7 174.8 95.7C204 96.7 233 100.3 262 106.7C291 113 320 122 349 129.2C378 136.3 407 141.7 436.2 129.8C465.3 118 494.7 89 523.8 78.2C553 67.3 582 74.7 611 82C640 89.3 669 96.7 698 96.7C727 96.7 756 89.3 785.2 85.7C814.3 82 843.7 82 872.8 78.3C902 74.7 931 67.3 945.5 63.7L960 60L960 0L945.5 0C931 0 902 0 872.8 0C843.7 0 814.3 0 785.2 0C756 0 727 0 698 0C669 0 640 0 611 0C582 0 553 0 523.8 0C494.7 0 465.3 0 436.2 0C407 0 378 0 349 0C320 0 291 0 262 0C233 0 204 0 174.8 0C145.7 0 116.3 0 87.2 0C58 0 29 0 14.5 0L0 0Z" fill="#a9ccff"></path><path d="M0 179L14.5 175.5C29 172 58 165 87.2 169.5C116.3 174 145.7 190 174.8 198C204 206 233 206 262 217.7C291 229.3 320 252.7 349 273.3C378 294 407 312 436.2 295C465.3 278 494.7 226 523.8 213.5C553 201 582 228 611 229.8C640 231.7 669 208.3 698 190.3C727 172.3 756 159.7 785.2 156.8C814.3 154 843.7 161 872.8 179.8C902 198.7 931 229.3 945.5 244.7L960 260L960 58L945.5 61.7C931 65.3 902 72.7 872.8 76.3C843.7 80 814.3 80 785.2 83.7C756 87.3 727 94.7 698 94.7C669 94.7 640 87.3 611 80C582 72.7 553 65.3 523.8 76.2C494.7 87 465.3 116 436.2 127.8C407 139.7 378 134.3 349 127.2C320 120 291 111 262 104.7C233 98.3 204 94.7 174.8 93.7C145.7 92.7 116.3 94.3 87.2 90.7C58 87 29 78 14.5 73.5L0 69Z" fill="#99c2ff"></path><path d="M0 255L14.5 254C29 253 58 251 87.2 249.2C116.3 247.3 145.7 245.7 174.8 253.8C204 262 233 280 262 291.7C291 303.3 320 308.7 349 320.3C378 332 407 350 436.2 332C465.3 314 494.7 260 523.8 248.3C553 236.7 582 267.3 611 279C640 290.7 669 283.3 698 274.3C727 265.3 756 254.7 785.2 250.2C814.3 245.7 843.7 247.3 872.8 255.5C902 263.7 931 278.3 945.5 285.7L960 293L960 258L945.5 242.7C931 227.3 902 196.7 872.8 177.8C843.7 159 814.3 152 785.2 154.8C756 157.7 727 170.3 698 188.3C669 206.3 640 229.7 611 227.8C582 226 553 199 523.8 211.5C494.7 224 465.3 276 436.2 293C407 310 378 292 349 271.3C320 250.7 291 227.3 262 215.7C233 204 204 204 174.8 196C145.7 188 116.3 172 87.2 167.5C58 163 29 170 14.5 173.5L0 177Z" fill="#89b9ff"></path><path d="M0 320L14.5 317.2C29 314.3 58 308.7 87.2 302.3C116.3 296 145.7 289 174.8 293.5C204 298 233 314 262 324.8C291 335.7 320 341.3 349 357.7C378 374 407 401 436.2 388.3C465.3 375.7 494.7 323.3 523.8 312.5C553 301.7 582 332.3 611 341.3C640 350.3 669 337.7 698 324.2C727 310.7 756 296.3 785.2 289.2C814.3 282 843.7 282 872.8 288.3C902 294.7 931 307.3 945.5 313.7L960 320L960 291L945.5 283.7C931 276.3 902 261.7 872.8 253.5C843.7 245.3 814.3 243.7 785.2 248.2C756 252.7 727 263.3 698 272.3C669 281.3 640 288.7 611 277C582 265.3 553 234.7 523.8 246.3C494.7 258 465.3 312 436.2 330C407 348 378 330 349 318.3C320 306.7 291 301.3 262 289.7C233 278 204 260 174.8 251.8C145.7 243.7 116.3 245.3 87.2 247.2C58 249 29 251 14.5 252L0 253Z" fill="#79adfb"></path><path d="M0 509L14.5 500.8C29 492.7 58 476.3 87.2 468.2C116.3 460 145.7 460 174.8 469C204 478 233 496 262 496C291 496 320 478 349 478C378 478 407 496 436.2 496.8C465.3 497.7 494.7 481.3 523.8 477.7C553 474 582 483 611 481.3C640 479.7 669 467.3 698 461.2C727 455 756 455 785.2 460.3C814.3 465.7 843.7 476.3 872.8 476.3C902 476.3 931 465.7 945.5 460.3L960 455L960 318L945.5 311.7C931 305.3 902 292.7 872.8 286.3C843.7 280 814.3 280 785.2 287.2C756 294.3 727 308.7 698 322.2C669 335.7 640 348.3 611 339.3C582 330.3 553 299.7 523.8 310.5C494.7 321.3 465.3 373.7 436.2 386.3C407 399 378 372 349 355.7C320 339.3 291 333.7 262 322.8C233 312 204 296 174.8 291.5C145.7 287 116.3 294 87.2 300.3C58 306.7 29 312.3 14.5 315.2L0 318Z" fill="#6aa0f4"></path><path d="M0 541L14.5 541C29 541 58 541 87.2 541C116.3 541 145.7 541 174.8 541C204 541 233 541 262 541C291 541 320 541 349 541C378 541 407 541 436.2 541C465.3 541 494.7 541 523.8 541C553 541 582 541 611 541C640 541 669 541 698 541C727 541 756 541 785.2 541C814.3 541 843.7 541 872.8 541C902 541 931 541 945.5 541L960 541L960 453L945.5 458.3C931 463.7 902 474.3 872.8 474.3C843.7 474.3 814.3 463.7 785.2 458.3C756 453 727 453 698 459.2C669 465.3 640 477.7 611 479.3C582 481 553 472 523.8 475.7C494.7 479.3 465.3 495.7 436.2 494.8C407 494 378 476 349 476C320 476 291 494 262 494C233 494 204 476 174.8 467C145.7 458 116.3 458 87.2 466.2C58 474.3 29 490.7 14.5 498.8L0 507Z" fill="#5b92ec"></path></svg>